<?xml version="1.0" encoding="utf-8"?><!-- Uploaded to: SVG Repo, www.svgrepo.com, Generator: SVG Repo Mixer Tools -->
<svg width="800px" height="800px" viewBox="0 -0.5 25 25" fill="none" xmlns="http://www.w3.org/2000/svg">
<path fill-rule="evenodd" clip-rule="evenodd" d="M4.5 14.462V12.538C4.52129 11.6681 5.2431 10.9799 6.113 11H6.774C7.34208 9.24261 8.96147 8.03831 10.808 8H14.192C16.0385 8.03831 17.6579 9.24261 18.226 11C18.4082 11.5231 18.5009 12.0731 18.5 12.627V14.373C18.5849 16.8392 16.6579 18.9088 14.192 19H10.808C8.96147 18.9617 7.34208 17.7574 6.774 16H6.113C5.2431 16.0201 4.52129 15.3319 4.5 14.462Z" stroke="#000000" stroke-width="1.5" stroke-linecap="round" stroke-linejoin="round"/>
<path fill-rule="evenodd" clip-rule="evenodd" d="M14.5 12.5C14.5 13.6046 13.6046 14.5 12.5 14.5C11.3954 14.5 10.5 13.6046 10.5 12.5C10.5 11.3954 11.3954 10.5 12.5 10.5C13.6046 10.5 14.5 11.3954 14.5 12.5Z" stroke="#000000" stroke-width="1.5" stroke-linecap="round" stroke-linejoin="round"/>
<path d="M13.25 5C13.25 4.58579 12.9142 4.25 12.5 4.25C12.0858 4.25 11.75 4.58579 11.75 5H13.25ZM11.75 8C11.75 8.41421 12.0858 8.75 12.5 8.75C12.9142 8.75 13.25 8.41421 13.25 8H11.75ZM6.06579 16.2467C6.20206 16.6379 6.62963 16.8445 7.02079 16.7082C7.41194 16.572 7.61856 16.1444 7.48228 15.7533L6.06579 16.2467ZM6.50004 14.373L7.25004 14.3742V14.373H6.50004ZM6.50004 12.627H7.25004L7.25004 12.6258L6.50004 12.627ZM7.48228 11.2467C7.61856 10.8556 7.41194 10.428 7.02079 10.2918C6.62963 10.1555 6.20206 10.3621 6.06579 10.7533L7.48228 11.2467ZM18.226 10.25C17.8118 10.25 17.476 10.5858 17.476 11C17.476 11.4142 17.8118 11.75 18.226 11.75V10.25ZM18.887 11V11.75C18.8928 11.75 18.8986 11.7499 18.9044 11.7498L18.887 11ZM20.5 12.538H21.25C21.25 12.5319 21.25 12.5258 21.2498 12.5197L20.5 12.538ZM20.5 14.462L21.2498 14.4803C21.25 14.4742 21.25 14.4681 21.25 14.462H20.5ZM18.887 16L18.9044 15.2502C18.8986 15.2501 18.8928 15.25 18.887 15.25V16ZM18.226 15.25C17.8118 15.25 17.476 15.5858 17.476 16C17.476 16.4142 17.8118 16.75 18.226 16.75V15.25ZM10.5 15.75C10.0858 15.75 9.75004 16.0858 9.75004 16.5C9.75004 16.9142 10.0858 17.25 10.5 17.25V15.75ZM14.5 17.25C14.9142 17.25 15.25 16.9142 15.25 16.5C15.25 16.0858 14.9142 15.75 14.5 15.75V17.25ZM11.75 5V8H13.25V5H11.75ZM7.48228 15.7533C7.32782 15.3099 7.2493 14.8437 7.25004 14.3742L5.75004 14.3718C5.74904 15.0101 5.85579 15.644 6.06579 16.2467L7.48228 15.7533ZM7.25004 14.373V12.627H5.75004V14.373H7.25004ZM7.25004 12.6258C7.2493 12.1563 7.32782 11.6901 7.48228 11.2467L6.06579 10.7533C5.85579 11.356 5.74904 11.9899 5.75004 12.6282L7.25004 12.6258ZM18.226 11.75H18.887V10.25H18.226V11.75ZM18.9044 11.7498C19.3606 11.7392 19.7391 12.1002 19.7503 12.5563L21.2498 12.5197C21.2184 11.2361 20.1533 10.2205 18.8697 10.2502L18.9044 11.7498ZM19.75 12.538V14.462H21.25V12.538H19.75ZM19.7503 14.4437C19.7391 14.8998 19.3606 15.2608 18.9044 15.2502L18.8697 16.7498C20.1533 16.7795 21.2184 15.7639 21.2498 14.4803L19.7503 14.4437ZM18.887 15.25H18.226V16.75H18.887V15.25ZM10.5 17.25H14.5V15.75H10.5V17.25Z" fill="#000000"/>
</svg>