<svg id="Layer_1" data-name="Layer 1" xmlns="http://www.w3.org/2000/svg" xmlns:xlink="http://www.w3.org/1999/xlink" viewBox="0 0 228.75 228.75"><defs><style>.cls-1,.cls-13,.cls-15{fill:none;}.cls-2{fill:#0b0f19;opacity:0;}.cls-3{opacity:0.56;}.cls-4{fill:#6baaa1;opacity:0.22;}.cls-5{fill:#69a589;opacity:0.57;}.cls-6{fill:#97a86b;opacity:0.82;}.cls-7{fill:#00756a;}.cls-8{fill:#009a8e;}.cls-9{fill:url(#radial-gradient);}.cls-10{fill:url(#radial-gradient-2);}.cls-11{fill:#1b315d;}.cls-12{clip-path:url(#clip-path);}.cls-13{stroke:#d9edfa;stroke-width:2px;}.cls-13,.cls-15{stroke-linecap:round;stroke-miterlimit:10;}.cls-14{fill:url(#linear-gradient);}.cls-15{stroke:#00756a;stroke-width:6px;}</style><radialGradient id="radial-gradient" cx="297.78" cy="416.8" r="57.52" gradientUnits="userSpaceOnUse"><stop offset="0" stop-color="#fbb040"/><stop offset="0.04" stop-color="#f3b145"/><stop offset="0.27" stop-color="#c3b862"/><stop offset="0.48" stop-color="#9ebd79"/><stop offset="0.68" stop-color="#83c18a"/><stop offset="0.86" stop-color="#73c393"/><stop offset="1" stop-color="#6dc497"/></radialGradient><radialGradient id="radial-gradient-2" cx="298.56" cy="419.54" r="57.14" gradientUnits="userSpaceOnUse"><stop offset="0" stop-color="#d0a448"/><stop offset="0.05" stop-color="#c0a34d"/><stop offset="0.24" stop-color="#86a061"/><stop offset="0.42" stop-color="#569e71"/><stop offset="0.59" stop-color="#319c7e"/><stop offset="0.75" stop-color="#169b87"/><stop offset="0.89" stop-color="#069a8c"/><stop offset="1" stop-color="#009a8e"/></radialGradient><clipPath id="clip-path" transform="translate(-184.29 -323.53)"><polygon class="cls-1" points="283.21 448.96 284.19 449.11 286.33 449.58 291.04 450.79 293.72 451.31 296.42 451.76 298.83 452.1 300.96 451.81 304.06 451.29 307.19 450.66 310.18 449.91 314.42 448.96 319.15 448.48 321.22 447.99 322.28 435.34 320.56 412.06 315.57 378.43 286.82 378.1 283.76 405.65 283.44 434.83 283.21 446.2 283.21 448.96"/></clipPath><linearGradient id="linear-gradient" x1="114.6" y1="122.4" x2="114.47" y2="134.76" gradientUnits="userSpaceOnUse"><stop offset="0" stop-color="#ffd66a"/><stop offset="0.1" stop-color="#e0bf68"/><stop offset="0.35" stop-color="#9b8d64"/><stop offset="0.57" stop-color="#646661"/><stop offset="0.76" stop-color="#3c495f"/><stop offset="0.91" stop-color="#24375e"/><stop offset="1" stop-color="#1b315d"/></linearGradient></defs><rect class="cls-2" width="228.75" height="228.75"/><g id="halo" class="cls-3"><circle class="cls-4" cx="114.56" cy="106.23" r="68.16"/><circle class="cls-5" cx="114.56" cy="106.23" r="56.1"/><circle class="cls-6" cx="114.37" cy="106.23" r="40.9"/></g><g id="squid"><g id="ailerons"><path class="cls-7" d="M277,413.18l-28.53-15.95c-1.37-.88-4.1-2.9-4.56-6-.5-3.3,1.79-6.13,3.52-8.09,20.62-23.45,29.76-29.54,32.87-31.56A34.31,34.31,0,0,1,295.82,346c1.68-.15,2.53-.22,3,.06C302.11,347.93,299.34,362.65,277,413.18Z" transform="translate(-184.29 -323.53)"/><path class="cls-7" d="M320.67,413.18l28.53-15.95c1.37-.88,4.1-2.9,4.56-6,.5-3.3-1.79-6.13-3.52-8.09-20.62-23.45-29.76-29.54-32.87-31.56A34.31,34.31,0,0,0,301.85,346c-1.68-.15-2.53-.22-3,.06C295.56,347.93,298.33,362.65,320.67,413.18Z" transform="translate(-184.29 -323.53)"/></g><g id="body"><path class="cls-8" d="M344,496.72,342,505.59l-8.12,5.31-6.75.49-7.14-3-4-6.85v-3.19h-5.86a26.4,26.4,0,0,0-.79,7.07c0,2.79.08,5.67,1.76,8.61a14.32,14.32,0,0,0,7,6.1l-6.67-.59L305,515.89l-3-6.06-.69-5.58c0-2,0-3.95,0-5.93h-4.87v5.93l-.69,5.58-3,6.06-6.36,3.62-6.67.59a14.14,14.14,0,0,0,8.72-14.71c-.29-2.36-.57-4.71-.87-7.07h-5.78v3.19l-4,6.85-7.14,3-6.75-.49-8.12-5.31-2.05-8.87s-.1-5.38,1.17-1.17a26.38,26.38,0,0,0,2.25,4.24,12.3,12.3,0,0,0,11.61,5.15,7.27,7.27,0,0,0,2.87-.88c2.67-1.63,3.05-5.12,3.12-5.84v-36.8a5,5,0,1,0,5-5.34V448.6l.45,0,1.47.13.52.05,1.11.14a26,26,0,0,1,3.84.83,84,84,0,0,0,11.78,2.31,84.06,84.06,0,0,0,11.79-2.31,32.22,32.22,0,0,1,7.06-1.16v7.45a5,5,0,1,0,5,5.34v36.76c.11.82.68,4.26,3.45,5.88a7.76,7.76,0,0,0,2.87.88,12.3,12.3,0,0,0,11.61-5.15,26.38,26.38,0,0,0,2.25-4.24C344.11,491.34,344,496.72,344,496.72Z" transform="translate(-184.29 -323.53)"/><path class="cls-8" d="M284.66,461.08a5,5,0,0,1-10,.34v-.34Z" transform="translate(-184.29 -323.53)"/><path class="cls-8" d="M322.66,461.08v.34a5,5,0,0,1-10-.34Z" transform="translate(-184.29 -323.53)"/><path class="cls-8" d="M284.66,461.08h-5v-5A5,5,0,0,1,284.66,461.08Z" transform="translate(-184.29 -323.53)"/><path class="cls-8" d="M317.68,433.91v14.72a32.22,32.22,0,0,0-7.06,1.16,84.06,84.06,0,0,1-11.79,2.31,84,84,0,0,1-11.78-2.31,26,26,0,0,0-3.84-.83l-1.11-.14-.52-.05-1.47-.13-.45,0V433.91Z" transform="translate(-184.29 -323.53)"/><path class="cls-8" d="M317.68,456.08v5h-5A5,5,0,0,1,317.68,456.08Z" transform="translate(-184.29 -323.53)"/><path class="cls-9" d="M321.54,447.86a11.36,11.36,0,0,1-3.86.77,32.22,32.22,0,0,0-7.06,1.16,84.06,84.06,0,0,1-11.79,2.31,84,84,0,0,1-11.78-2.31,26,26,0,0,0-3.84-.83l-1.11-.14-.52-.05-1.47-.13-.45,0c-.35,0-.68-.06-1-.1l-.69-.1-.39-.07c-.16,0-.32-.07-.47-.12a6.72,6.72,0,0,1-1-.35c-1.67-.76-.7-18.42.87-34.68h0v0c.81-8.41,1.79-16.44,2.65-21.57,2.52-15,8.07-45.48,19.17-45.55s16.66,30.52,19.18,45.55c.86,5.13,1.84,13.16,2.65,21.57v0h0C322.24,429.44,323.21,447.1,321.54,447.86Z" transform="translate(-184.29 -323.53)"/><path class="cls-10" d="M298.83,346v.86c-.39.62-.76,1.25-1.12,1.88h0c-8.64,14.81-12,31-13.39,47.48h0c-1,12.53-.84,25.22-.88,37.64,0,5.08-.06,10.1-.23,15l-1.11-.14-.52-.05-1.47-.13-.45,0c-.35,0-.68-.06-1-.1l-.69-.1-.39-.07c-.16,0-.32-.07-.47-.12a6.72,6.72,0,0,1-1-.35c-1.67-.76-.7-18.42.87-34.68h0v0c.81-8.41,1.79-16.44,2.65-21.57C282.18,376.55,287.73,346.1,298.83,346Z" transform="translate(-184.29 -323.53)"/><path class="cls-11" d="M284.66,461.08a5,5,0,0,1-10,.34,1.88,1.88,0,0,1,0-.34,5,5,0,0,1,10,0Z" transform="translate(-184.29 -323.53)"/><path class="cls-11" d="M322.68,461.08a1.88,1.88,0,0,1,0,.34,4.88,4.88,0,1,1,0-.34Z" transform="translate(-184.29 -323.53)"/><g class="cls-12"><line class="cls-13" x1="110.64" y1="123.57" x2="104.08" y2="89.03"/><line class="cls-13" x1="118.11" y1="123.57" x2="124.67" y2="89.03"/><path class="cls-13" d="M288.37,412.56a3.8,3.8,0,0,0,2.74,1.62c1.45-.05,1.83-1.55,3.33-1.66,1.74-.14,2.17,1.84,4,1.85s2.42-2.14,4.21-2c1.51.13,1.86,1.74,3.37,1.84a4,4,0,0,0,2.93-1.67" transform="translate(-184.29 -323.53)"/><rect class="cls-14" x="102.13" y="123.12" width="24.82" height="9.12" rx="4.56"/></g></g><g id="tentacles"><line class="cls-15" x1="100.37" y1="156.17" x2="100.37" y2="173.65"/><path class="cls-15" d="M284.66,497.18a16.47,16.47,0,1,1-32.93,0" transform="translate(-184.29 -323.53)"/><path class="cls-15" d="M251.73,497.18a10.33,10.33,0,0,0-1.69-6.13c-3.08-4.56-8.77-4.58-9.26-4.57" transform="translate(-184.29 -323.53)"/><path class="cls-15" d="M298.83,505.59a18.07,18.07,0,0,1-4.77,11.87c-6.38,6.73-15.55,5.32-16.34,5.18" transform="translate(-184.29 -323.53)"/><line class="cls-15" x1="128.72" y1="156.17" x2="128.72" y2="173.65"/><path class="cls-15" d="M313,497.18a16.47,16.47,0,1,0,32.93,0" transform="translate(-184.29 -323.53)"/><path class="cls-15" d="M345.94,497.18a10.33,10.33,0,0,1,1.69-6.13c3.08-4.56,8.77-4.58,9.26-4.57" transform="translate(-184.29 -323.53)"/><line class="cls-15" x1="114.54" y1="158.78" x2="114.54" y2="182.06"/><path class="cls-15" d="M298.83,505.59a18.16,18.16,0,0,0,4.78,11.87c6.38,6.73,15.55,5.32,16.34,5.18" transform="translate(-184.29 -323.53)"/><line class="cls-15" x1="114.54" y1="158.78" x2="114.54" y2="182.06"/></g></g></svg>